<svg width="11" height="12" viewBox="0 0 11 12" fill="none" xmlns="http://www.w3.org/2000/svg">
<path d="M3.76278 2.60369V3.79688H0V2.60369H3.76278ZM0.928977 1.03551H2.47159V7.1804C2.47159 7.38778 2.50284 7.54688 2.56534 7.65767C2.63068 7.76562 2.71591 7.83949 2.82102 7.87926C2.92614 7.91903 3.04261 7.93892 3.17045 7.93892C3.26705 7.93892 3.35511 7.93182 3.43466 7.91761C3.51705 7.90341 3.57955 7.89063 3.62216 7.87926L3.8821 9.08523C3.79972 9.11364 3.68182 9.14489 3.52841 9.17898C3.37784 9.21307 3.19318 9.23296 2.97443 9.23864C2.58807 9.25 2.24006 9.19176 1.9304 9.06392C1.62074 8.93324 1.375 8.73153 1.19318 8.45881C1.0142 8.18608 0.926136 7.84517 0.928977 7.43608V1.03551Z" fill="white"/>
<path d="M5.05291 2.60369H6.59553V9.52415C6.59553 9.99574 6.50604 10.3849 6.32706 10.6918C6.14808 10.9986 5.88956 11.2273 5.55149 11.3778C5.21342 11.5284 4.80291 11.6037 4.31996 11.6037C4.26314 11.6037 4.21058 11.6023 4.16229 11.5994C4.11399 11.5994 4.06143 11.598 4.00462 11.5952V10.3381C4.04723 10.3409 4.08558 10.3423 4.11967 10.3423C4.15376 10.3452 4.18928 10.3466 4.22621 10.3466C4.52166 10.3466 4.73331 10.2741 4.86115 10.1293C4.98899 9.98722 5.05291 9.77841 5.05291 9.50284V2.60369ZM5.81996 1.67472C5.5728 1.67472 5.36115 1.59375 5.18501 1.43182C5.01172 1.26705 4.92507 1.0696 4.92507 0.839489C4.92507 0.606534 5.01172 0.409091 5.18501 0.247159C5.36115 0.0823863 5.5728 0 5.81996 0C6.06428 0 6.27308 0.0823863 6.44638 0.247159C6.62251 0.409091 6.71058 0.606534 6.71058 0.839489C6.71058 1.0696 6.62251 1.26705 6.44638 1.43182C6.27308 1.59375 6.06428 1.67472 5.81996 1.67472Z" fill="white"/>
<path d="M9.1321 9.2429C8.87358 9.2429 8.65199 9.15199 8.46733 8.97017C8.28267 8.78835 8.19176 8.56676 8.1946 8.3054C8.19176 8.04972 8.28267 7.83097 8.46733 7.64915C8.65199 7.46733 8.87358 7.37642 9.1321 7.37642C9.3821 7.37642 9.59943 7.46733 9.78409 7.64915C9.97159 7.83097 10.0668 8.04972 10.0696 8.3054C10.0668 8.47869 10.0213 8.63636 9.93324 8.77841C9.84801 8.92045 9.73438 9.03409 9.59233 9.11932C9.45313 9.2017 9.29972 9.2429 9.1321 9.2429Z" fill="white"/>
</svg>
